<?xml version="1.0" ?>
<mxfile host="app.diagrams.net" agent="python-script">
  <diagram id="main-diagram" name="Azure Infrastructure">
    <mxGraphModel dx="2500" dy="2000" grid="1" gridSize="10" guides="1" tooltips="1" connect="1" arrows="1" fold="1" page="1" pageScale="1" pageWidth="4681" pageHeight="3300">
      <root>
        <mxCell id="0"/>
        <mxCell id="1" parent="0"/>
        <mxCell id="group_internet" style="container=1;rounded=1;whiteSpace=wrap;html=1;fillColor=#e1f5fe;strokeColor=#01579b;fontSize=14;fontStyle=1;align=center;verticalAlign=middle;" parent="1" vertex="1">
          <mxGeometry x="80" y="80" width="800" height="120" as="geometry"/>
          <object label="🌐 Internet / External Services" as="value"/>
        </mxCell>
        <mxCell id="group_edge" style="container=1;rounded=1;whiteSpace=wrap;html=1;fillColor=#fff3e0;strokeColor=#ef6c00;fontSize=14;fontStyle=1;align=center;verticalAlign=middle;" parent="1" vertex="1">
          <mxGeometry x="80" y="230" width="800" height="150" as="geometry"/>
          <object label="🛡️ Edge / Perimeter Security" as="value"/>
        </mxCell>
        <mxCell id="group_region_0" style="container=1;rounded=1;whiteSpace=wrap;html=1;fillColor=#f3e5f5;strokeColor=#7b1fa2;fontSize=16;fontStyle=1;align=left;verticalAlign=top;spacingLeft=15;spacingTop=15;" parent="1" vertex="1">
          <mxGeometry x="80" y="430" width="680" height="430" as="geometry"/>
          <object label="🌍 Region: Westeurope" as="value"/>
        </mxCell>
        <mxCell id="group_vnet_0" style="container=1;rounded=1;whiteSpace=wrap;html=1;fillColor=#e8f5e8;strokeColor=#2e7d32;fontSize=14;fontStyle=1;align=left;verticalAlign=top;spacingLeft=15;spacingTop=15;" parent="group_region_0" vertex="1">
          <mxGeometry x="120" y="510" width="600" height="300" as="geometry"/>
          <object label="🏗️ VNet: vnet-hub-prd-we-001" as="value"/>
        </mxCell>
        <mxCell id="group_tier_public_0" style="container=1;rounded=1;whiteSpace=wrap;html=1;fillColor=#ffebee;strokeColor=#c62828;fontSize=12;fontStyle=1;align=left;verticalAlign=top;spacingLeft=10;spacingTop=5;" parent="group_vnet_0" vertex="1">
          <mxGeometry x="140" y="560" width="560" height="80" as="geometry"/>
          <object label="Public Tier" as="value"/>
        </mxCell>
        <mxCell id="group_tier_private_1" style="container=1;rounded=1;whiteSpace=wrap;html=1;fillColor=#f1f8e9;strokeColor=#388e3c;fontSize=12;fontStyle=1;align=left;verticalAlign=top;spacingLeft=10;spacingTop=5;" parent="group_vnet_0" vertex="1">
          <mxGeometry x="140" y="650" width="560" height="80" as="geometry"/>
          <object label="Private Tier" as="value"/>
        </mxCell>
        <mxCell id="group_security" style="container=1;rounded=1;whiteSpace=wrap;html=1;fillColor=#fafafa;strokeColor=#424242;fontSize=12;fontStyle=1;align=left;verticalAlign=top;spacingLeft=10;spacingTop=10;" parent="1" vertex="1">
          <mxGeometry x="860" y="80" width="250" height="400" as="geometry"/>
          <object label="🔒 Security &amp; Management" as="value"/>
        </mxCell>
        <mxCell id="node-0" style="image;aspect=fixed;html=1;points=[];align=center;fontSize=12;image=img/lib/azure2/general/Management_Groups.svg" parent="group_security" vertex="1">
          <mxGeometry x="880" y="190" width="60" height="60" as="geometry"/>
          <object label="&lt;b&gt;contoso-root&lt;/b&gt;" as="value" type="microsoft.management/managementgroups"/>
        </mxCell>
        <mxCell id="node-1" style="image;aspect=fixed;html=1;points=[];align=center;fontSize=12;image=img/lib/azure2/general/Management_Groups.svg" parent="group_security" vertex="1">
          <mxGeometry x="880" y="260" width="60" height="60" as="geometry"/>
          <object label="&lt;b&gt;contoso-platform&lt;/b&gt;" as="value" type="microsoft.management/managementgroups"/>
        </mxCell>
        <mxCell id="node-2" style="image;aspect=fixed;html=1;points=[];align=center;fontSize=12;image=img/lib/azure2/general/Management_Groups.svg" parent="group_security" vertex="1">
          <mxGeometry x="880" y="330" width="60" height="60" as="geometry"/>
          <object label="&lt;b&gt;contoso-connectivity&lt;/b&gt;" as="value" type="microsoft.management/managementgroups"/>
        </mxCell>
        <mxCell id="node-3" style="image;aspect=fixed;html=1;points=[];align=center;fontSize=12;image=img/lib/azure2/general/Subscriptions.svg" parent="group_security" vertex="1">
          <mxGeometry x="880" y="400" width="60" height="60" as="geometry"/>
          <object label="&lt;b&gt;contoso-prod-001&lt;/b&gt;" as="value" type="microsoft.resources/subscriptions"/>
        </mxCell>
        <mxCell id="node-4" style="image;aspect=fixed;html=1;points=[];align=center;fontSize=12;image=img/lib/azure2/general/Resource_Groups.svg" parent="1" vertex="1">
          <mxGeometry x="720" y="1500" width="80" height="80" as="geometry"/>
          <object label="&lt;b&gt;rg-network-prd-we-001&lt;/b&gt;" as="value" type="microsoft.resources/subscriptions/resourcegroups"/>
        </mxCell>
        <mxCell id="node-5" style="image;aspect=fixed;html=1;points=[];align=center;fontSize=12;image=img/lib/azure2/general/Resource_Groups.svg" parent="1" vertex="1">
          <mxGeometry x="900" y="1500" width="80" height="80" as="geometry"/>
          <object label="&lt;b&gt;rg-compute-prd-we-001&lt;/b&gt;" as="value" type="microsoft.resources/subscriptions/resourcegroups"/>
        </mxCell>
        <mxCell id="node-6" style="image;aspect=fixed;html=1;points=[];align=center;fontSize=12;image=img/lib/azure2/networking/Virtual_Networks.svg" parent="group_vnet_0" vertex="1">
          <mxGeometry x="140" y="530" width="60" height="60" as="geometry"/>
          <object label="&lt;b&gt;vnet-hub-prd-we-001&lt;/b&gt;" as="value" type="microsoft.network/virtualnetworks"/>
        </mxCell>
        <mxCell id="node-7" style="image;aspect=fixed;html=1;points=[];align=center;fontSize=12;image=img/lib/azure2/networking/Subnet.svg" parent="group_tier_public_0" vertex="1">
          <mxGeometry x="160" y="585" width="60" height="60" as="geometry"/>
          <object label="&lt;b&gt;snet-gateway-prd-we-001&lt;/b&gt;" as="value" type="microsoft.network/virtualnetworks/subnets"/>
        </mxCell>
        <mxCell id="node-8" style="image;aspect=fixed;html=1;points=[];align=center;fontSize=12;image=img/lib/azure2/networking/Subnet.svg" parent="group_tier_private_1" vertex="1">
          <mxGeometry x="160" y="675" width="60" height="60" as="geometry"/>
          <object label="&lt;b&gt;snet-compute-prd-we-001&lt;/b&gt;" as="value" type="microsoft.network/virtualnetworks/subnets"/>
        </mxCell>
        <mxCell id="node-9" style="image;aspect=fixed;html=1;points=[];align=center;fontSize=12;image=img/lib/azure2/networking/Public_IP_Addresses.svg" parent="group_internet" vertex="1">
          <mxGeometry x="130" y="115" width="60" height="60" as="geometry"/>
          <object label="&lt;b&gt;pip-gateway-prd-we-001&lt;/b&gt;" as="value" type="microsoft.network/publicipaddresses"/>
        </mxCell>
        <mxCell id="node-10" style="image;aspect=fixed;html=1;points=[];align=center;fontSize=12;image=img/lib/azure2/networking/Network_Security_Groups.svg" parent="group_security" vertex="1">
          <mxGeometry x="880" y="120" width="60" height="60" as="geometry"/>
          <object label="&lt;b&gt;nsg-compute-prd-we-001&lt;/b&gt;" as="value" type="microsoft.network/networksecuritygroups"/>
        </mxCell>
        <mxCell id="node-11" style="image;aspect=fixed;html=1;points=[];align=center;fontSize=12;image=img/lib/azure2/networking/Application_Gateway.svg" parent="group_edge" vertex="1">
          <mxGeometry x="130" y="280" width="60" height="60" as="geometry"/>
          <object label="&lt;b&gt;agw-web-prd-we-001&lt;/b&gt;" as="value" type="microsoft.network/applicationgateways"/>
        </mxCell>
        <mxCell id="node-12" style="image;aspect=fixed;html=1;points=[];align=center;fontSize=12;image=img/lib/azure2/compute/Virtual_Machine.svg" parent="1" vertex="1">
          <mxGeometry x="2160" y="1500" width="80" height="80" as="geometry"/>
          <object label="&lt;b&gt;vm-web-prd-we-001&lt;/b&gt;" as="value" type="microsoft.compute/virtualmachines"/>
        </mxCell>
      </root>
    </mxGraphModel>
  </diagram>
</mxfile>
